<svg width="20" height="16" viewBox="0 0 20 16" fill="none" xmlns="http://www.w3.org/2000/svg">
<path d="M0 3C0 1.34315 1.34315 0 3 0H17C18.6569 0 20 1.34315 20 3V13C20 14.6569 18.6569 16 17 16H3C1.34315 16 0 14.6569 0 13V3Z" fill="#EAECF0"/>
<path d="M2 8C2 7.44772 2.44772 7 3 7H17C17.5523 7 18 7.44772 18 8C18 8.55228 17.5523 9 17 9H3C2.44772 9 2 8.55228 2 8Z" fill="#8B8B8B"/>
<path d="M2 4C2 3.44772 2.44772 3 3 3H5C5.55228 3 6 3.44772 6 4C6 4.55228 5.55228 5 5 5H3C2.44772 5 2 4.55228 2 4Z" fill="white"/>
<path d="M10 11C10 10.4477 10.4477 10 11 10H15C15.5523 10 16 10.4477 16 11V13C16 13.5523 15.5523 14 15 14H11C10.4477 14 10 13.5523 10 13V11Z" fill="#FE4F42"/>
<path d="M11 11H15V13H11V11Z" fill="#EAECF0"/>
</svg>
